<svg xmlns="http://www.w3.org/2000/svg" width="512" height="512"><path d="M169.388 134.971c-1.161.475-3.074 2.086-4.25 3.581-3.906 4.965-2.134 11.682 3.876 14.696 3.236 1.623 9.51 1.749 87.486 1.749s84.25-.126 87.486-1.749c6.492-3.256 7.869-10.141 3.096-15.482l-2.917-3.266-86.333-.195c-47.482-.108-87.282.192-88.444.666m-33.68 209.779c-4.497 13.627-6.093 24.389-6.045 40.75.048 16.435 1.382 24.683 6.468 40 10.232 30.813 34.02 58.012 63.808 72.957 26.21 13.15 57.759 16.541 87.057 9.356 48.589-11.915 86.529-52.944 94.52-102.216 1.529-9.424 1.897-30.107.662-37.097l-.708-4-7.133-.639c-10.991-.984-19.079-4.221-33.046-13.227-15.707-10.127-25.994-13.599-40.291-13.599-14.771 0-24.819 3.317-40.291 13.3-17.276 11.148-24.701 13.626-40.91 13.65-16.155.025-25.455-2.969-40.26-12.959-13.534-9.132-26.188-13.897-37.157-13.991l-4.117-.035-2.557 7.75" fill="undefined" fill-rule="evenodd"/></svg>